<svg width="215" height="130" viewBox="0 0 215 130" fill="none" xmlns="http://www.w3.org/2000/svg">
<path d="M163.796 0C152.48 0 142.862 5.65217 134.658 17.2391C126.171 29.1087 119.947 45.7826 114.007 61.8913C112.026 67.2609 110.046 72.6304 107.783 78C105.803 72.6304 103.539 67.2609 101.559 61.8913C95.6184 45.7826 89.3947 29.1087 80.9079 17.2391C72.7039 5.93478 62.8026 0 51.7697 0H0V18.9348C3.11184 18.9348 7.92105 19.7826 13.8618 28.2609C20.9342 37.8696 26.5921 53.4131 31.9671 68.3913C37.0592 82.5218 42.4342 96.9348 49.5066 108.239C58.5592 122.935 69.0263 130 82.0395 130C88.2632 130 93.6382 128.304 97.8816 125.478C93.921 120.674 90.8092 115.304 87.6974 109.652C85.4342 110.783 83.4539 111.065 82.0395 111.065C68.1776 111.065 58.5592 84.7826 49.7895 61.6087C44.1316 46.3478 38.1908 30.5217 30.2697 18.6522H51.4868C54.5987 18.6522 59.4079 19.5 65.3487 27.9783C72.4211 37.587 78.0789 53.1304 83.4539 68.1087C87.4145 78.8478 91.375 89.587 96.1842 99.1957C99.5789 105.696 103.257 111.913 107.217 117.283C112.875 123.783 121.362 130 132.961 130C145.691 130 156.441 122.935 165.493 108.239C172.283 96.9348 177.658 82.5218 183.033 68.3913C188.691 53.4131 194.349 37.8696 201.138 28.2609C207.079 20.0652 211.888 18.9348 215 18.9348V0H163.796ZM165.776 61.8913C157.289 85.0652 147.671 111.348 133.526 111.348C130.132 111.348 125.039 110.217 118.533 100.609C123.342 91 127.586 79.6957 131.546 68.6739C137.204 53.6957 142.862 38.1522 149.651 28.5435C155.592 20.3478 160.401 19.2174 163.513 19.2174H184.73C177.375 30.5217 171.434 46.3478 165.776 61.8913Z" fill="#F1F0F1"/>
</svg>
